# xmcd
#
# Track frame offsets:
# 150
# 7612
# 19950
# 27665
# 39497
# 49377
# 55587
# 61760
# 69137
# 79375
# 86350
# 98175
# 107580
# 115995
# 123352
# 130645
# 138912
# 149055
# 161902
# 175747
# 184020
# 194195
# 200595
# 206915
# 217250
# 225367
# 234792
# 241387
# 251605
# 259240
#
# Disc length: 3519 seconds
#
#
# Revision: 0
# Processed by: cddbd v1.5.2PL0 Copyright (c) Steve Scherf et al.
# Submitted via: FreeRIP 2.95 
#
DISCID=ae0dbd1e
DTITLE=SELEÇÕES DA COLEÇÕA CANÇÕES DE VIDA - VIDA NOVA
DYEAR=2005
DGENRE=Gospel
TTITLE0=E DOU-LHES A VIDA ETERNA
TTITLE1=PORQUE DEUS AMOU O MUNDO
TTITLE2=EIS QUE ESTOU A PORTA
TTITLE3=TODOS PECARAM MAS A TODOS QUANTO ORECEBERAM
TTITLE4=EU SOU O CAMINHO
TTITLE5=SERAS SALVO
TTITLE6=NÃO PELAS OBRAS
TTITLE7=TU E TUA CASA
TTITLE8=PELA GRAÇA
TTITLE9=TUDO SE FEZ NOVO
TTITLE10=NASCER DE NOVO
TTITLE11=E SER-ME-EI TESTEMUNHA
TTITLE12=RIOS
TTITLE13=O ESPIRITO SANTO
TTITLE14=O FRUTO DO ESPIRITO
TTITLE15=NOS UTIMOS DIAS
TTITLE16=O CONSOLADOR
TTITLE17=O AMOR NUNCA FALHA
TTITLE18=AMARÁS
TTITLE19=A MIM O FIZESTE
TTITLE20=A NINGUEM DEVAIS
TTITLE21=UM PARA COM OS OUTROS
TTITLE22=PORQUE ESTOU CERTO
TTITLE23=O AMOR É DE DEUS
TTITLE24=LEVAI AS CARGAS
TTITLE25=UM NOVO MANDAMENTO
TTITLE26=AMARÁS AO TEU PROXIMO
TTITLE27=GUARDAREIS OS MEUS MANDAMENTOS
TTITLE28=NO PRINCIPIO
TTITLE29=NEM UMA SÓ PALAVRA CAIU
EXTD=
EXTT0=
EXTT1=
EXTT2=
EXTT3=
EXTT4=
EXTT5=
EXTT6=
EXTT7=
EXTT8=
EXTT9=
EXTT10=
EXTT11=
EXTT12=
EXTT13=
EXTT14=
EXTT15=
EXTT16=
EXTT17=
EXTT18=
EXTT19=
EXTT20=
EXTT21=
EXTT22=
EXTT23=
EXTT24=
EXTT25=
EXTT26=
EXTT27=
EXTT28=
EXTT29=
PLAYORDER=
